<svg width="163" height="35" viewBox="0 0 163 35" fill="none" xmlns="http://www.w3.org/2000/svg">
<path d="M35.1469 34.93H29.5469V9.17L31.6469 5.67H28.4969L19.8869 25.2H15.8269L7.49688 5.67H4.34688L6.44688 9.17V34.93H0.846875V0.699999H10.8569L17.7869 17.08H18.4869L25.4169 0.699999H35.1469V34.93ZM53.3414 35H47.7414V0.699999H53.3414V35ZM85.875 5.6H75.725V35H70.125V5.6H59.975V0.699999H85.875V5.6ZM122.617 35H115.477L100.917 20.3H116.317V5.6H98.1168V35H92.5168V10.43L97.4168 5.6H92.5168V0.699999H117.017C118.323 0.699999 119.467 1.19 120.447 2.17C121.427 3.15 121.917 4.29333 121.917 5.6V18.9C121.917 22.6333 120.283 24.5 117.017 24.5H112.817V25.27L122.617 35ZM162.18 35H156.58V25.2H138.38V35H132.78V5.6C132.78 4.24666 133.247 3.10333 134.18 2.17C135.16 1.19 136.327 0.699999 137.68 0.699999H162.18V35ZM156.58 20.3V5.6H138.38V24.5L142.58 20.3H156.58Z" fill="white"/>
</svg>
